<svg width="45" height="45" viewBox="0 0 45 45" fill="none" xmlns="http://www.w3.org/2000/svg">
<path d="M2.34375 22.5C2.34375 11.368 11.368 2.34375 22.5 2.34375C33.632 2.34375 42.6562 11.368 42.6562 22.5C42.6562 33.632 33.632 42.6562 22.5 42.6562C11.368 42.6562 2.34375 33.632 2.34375 22.5Z" fill="#B7FB5B"/>
<path fill-rule="evenodd" clip-rule="evenodd" d="M18.8927 16.1575C19.1829 15.4568 19.8666 15 20.625 15H28.125C29.1605 15 30 15.8395 30 16.875V24.375C30 25.1334 29.5432 25.8171 28.8425 26.1073C28.1419 26.3975 27.3354 26.2371 26.7992 25.7008L24.375 23.2766L18.2008 29.4508C17.4686 30.1831 16.2814 30.1831 15.5492 29.4508C14.8169 28.7186 14.8169 27.5314 15.5492 26.7992L21.7233 20.625L19.2992 18.2008C18.7629 17.6646 18.6025 16.8581 18.8927 16.1575Z" fill="#141B34"/>
</svg>
