<svg width="20" height="20" viewBox="0 0 20 20" fill="none" xmlns="http://www.w3.org/2000/svg">
<path d="M18.5689 12.8243C17.3119 17.8663 12.2051 20.9348 7.16241 19.6775C2.12186 18.4205 -0.94664 13.3134 0.310921 8.27172C1.56738 3.2291 6.67417 0.160365 11.7153 1.41737C16.7576 2.67438 19.8259 7.78205 18.5687 12.8243L18.5688 12.8243H18.5689Z" fill="#F7931A"/>
<path d="M13.6058 9.19912C13.7932 7.94662 12.8396 7.27336 11.5357 6.82422L11.9587 5.1276L10.9259 4.87026L10.5141 6.52221C10.2426 6.45449 9.96376 6.39068 9.68664 6.32743L10.1014 4.66457L9.06926 4.40723L8.64603 6.1033C8.42135 6.05214 8.20067 6.00158 7.98656 5.94831L7.98776 5.94297L6.56353 5.58732L6.28879 6.6904C6.28879 6.6904 7.05503 6.86604 7.03889 6.87685C7.45711 6.98123 7.53274 7.25808 7.52018 7.47752L7.03833 9.41037C7.06713 9.41769 7.10449 9.42827 7.14571 9.44483C7.11125 9.43627 7.07458 9.42694 7.03654 9.41783L6.36116 12.1255C6.31005 12.2525 6.18032 12.4432 5.88792 12.3708C5.89827 12.3858 5.13727 12.1835 5.13727 12.1835L4.62451 13.3657L5.96851 13.7007C6.21854 13.7634 6.46356 13.829 6.70485 13.8907L6.27748 15.6068L7.30907 15.8642L7.7323 14.1663C8.01412 14.2428 8.28761 14.3134 8.55536 14.3799L8.13355 16.0698L9.16638 16.3271L9.59371 14.6142C11.3548 14.9475 12.679 14.8132 13.2364 13.2202C13.6856 11.9377 13.2141 11.198 12.2876 10.7156C12.9624 10.56 13.4707 10.1161 13.6062 9.19926L13.6059 9.19903L13.6058 9.19912ZM11.2462 12.508C10.927 13.7905 8.76766 13.0972 8.06758 12.9234L8.63471 10.6499C9.33475 10.8246 11.5797 11.1705 11.2462 12.508H11.2462ZM11.5656 9.18054C11.2744 10.3471 9.47718 9.75444 8.89417 9.60911L9.40836 7.54717C9.99137 7.6925 11.8689 7.96374 11.5657 9.18054H11.5656Z" fill="white"/>
</svg>
