<?xml version="1.0" encoding="UTF-8" standalone="no"?><!DOCTYPE svg PUBLIC "-//W3C//DTD SVG 1.1//EN" "http://www.w3.org/Graphics/SVG/1.1/DTD/svg11.dtd"><svg width="100%" height="100%" viewBox="0 0 5625 6150" version="1.1" xmlns="http://www.w3.org/2000/svg" xmlns:xlink="http://www.w3.org/1999/xlink" xml:space="preserve" xmlns:serif="http://www.serif.com/" style="fill-rule:evenodd;clip-rule:evenodd;stroke-linecap:round;stroke-linejoin:round;stroke-miterlimit:1.5;"><g id="White"><g id="D"><path d="M1446.772,1909.635l0,736.478l-430.858,249.428l0,-679.464l430.858,-306.442Z" style="fill:#fff;stroke:#fff;stroke-width:2.63px;"/><g><path d="M1572.715,1909.49l0,736.019l419.146,248.389l318.847,-205.905l-195.347,-118.301l0,-356.12l-542.646,-304.082Z" style="fill:#fff;stroke:#fff;stroke-width:2.62px;"/></g><g><path d="M1991.553,3002.084l318.903,188.465l-193.16,114.93l0,400.074l-542.949,286.336l0,-736.675" style="fill:#fff;stroke:#fff;stroke-width:2.63px;"/></g><g><path d="M1014.582,3007.83l432.812,255.208l0,730.11l-432.812,-284.992" style="fill:#fff;stroke:#fff;stroke-width:2.63px;"/></g><g><path d="M2401.884,2738.903l321.098,206.167l-321.098,187.659l-318.255,-187.659" style="fill:#fff;stroke:#fff;stroke-width:2.51px;"/></g></g><g id="C"><path d="M2753.048,1076.956l-502.727,279.469l0,1118.853l520.151,336.094l0,-1747.468" style="fill:#fff;stroke:#fff;stroke-width:2.63px;"/><path d="M2877.76,1310.037l0,-246.133l496.919,287.294l0,242.703" style="fill:#fff;stroke:#fff;stroke-width:2.63px;"/><path d="M3374.678,1769.616l-496.919,347.734l0,694.021l496.919,-326.766" style="fill:#fff;stroke:#fff;stroke-width:2.63px;"/></g><g><path d="M2126.704,2579.406l178.913,109.488" style="fill:none;stroke:#fff;stroke-width:3.42px;"/></g><g id="S"><g><path d="M4050.407,1908.393l-519.744,383.719l0,248.896l-236.395,154.448l319.744,200.151l436.395,-260.404" style="fill:#fff;stroke:#fff;stroke-width:2.63px;"/></g><path d="M4050.597,1908.606l0,666.425" style="fill:none;stroke:#fff;stroke-width:2.63px;"/><path d="M4179.244,1909.637l0,646.838l466.847,-288.668l0,-97.318" style="fill:#fff;stroke:#fff;stroke-width:2.63px;"/><path d="M4646.091,2170.49l-466.033,-261.704" style="fill:none;stroke:#fff;stroke-width:2.63px;"/><path d="M3328.438,3200.299l1317.653,-792.163l0,450.644l-1112.252,616.904l0,-150.671" style="fill:#fff;stroke:#fff;stroke-width:2.63px;"/></g><g id="M"><path d="M2770.98,3098.571l-523.707,310.771l0,954.95l105.062,82.965l0,-797.106l453.548,265.601l253.44,-154.22l-288.343,-204.08l0,-458.882Z" style="fill:#fff;stroke:#fff;stroke-width:2.63px;"/><path d="M2881.579,3098.546l0,409.098l502.13,350.822l0,-451.937l-502.13,-307.983Z" style="fill:#fff;stroke:#fff;stroke-width:2.63px;"/><g><path d="M3384.196,3994.783l0,381.443l-125.542,98.833l0,-569.908l125.542,89.632Z" style="fill:#fff;stroke:#fff;stroke-width:2.11px;"/></g><g><path d="M3057.708,4087.566l0,545.498l-231.229,182.154l-281.937,-216.273l0,-504.306l257.393,149.15" style="fill:#fff;stroke:#fff;stroke-width:2.55px;"/></g></g></g></svg>
